# xmcd CD database file
#
# Track frame offsets:
#	150
#	16465
#	31167
#	45010
#	58290
#	71202
#	84230
#	97512
#	109712
#	122412
#	134170
#	147640
#
# Disc length: 2135 seconds
#
# Revision: 0
# Processed by: cddbd v1.5.1PL0 Copyright (c) Steve Scherf et al.
# Submitted via: CDex 1.51
#
DISCID=9d08550c
DTITLE=Joe Williams - A Man Ain't Supposed To Cry
DYEAR=1900
DGENRE=Jazz
TTITLE0=A Man Ain't Supposed to Cry
TTITLE1=It's The Talk Of The Town
TTITLE2=I'll Never Smile Again
TTITLE3=I'm Thru With Love
TTITLE4=Where Are You
TTITLE5=I've Only Myself To Blame
TTITLE6=Say It Isn't So
TTITLE7=What Will I Tell My Heart
TTITLE8=You've Got Me Crying Again
TTITLE9=Can We Talk It Over
TTITLE10=I Laugh to Keep From Cryin'
TTITLE11=What's New
EXTD=
EXTT0=
EXTT1=
EXTT2=
EXTT3=
EXTT4=
EXTT5=
EXTT6=
EXTT7=
EXTT8=
EXTT9=
EXTT10=
EXTT11=
PLAYORDER=
